<?xml version="1.0" encoding="utf-8"?>
<!-- Generator: Adobe Illustrator 24.3.0, SVG Export Plug-In . SVG Version: 6.00 Build 0)  -->
<svg version="1.1" id="Capa_1" xmlns="http://www.w3.org/2000/svg" xmlns:xlink="http://www.w3.org/1999/xlink" x="0px" y="0px"
	 viewBox="0 0 1000 175.2" style="enable-background:new 0 0 1000 175.2;" xml:space="preserve">
<style type="text/css">
	.st0{fill:#159CD7;}
	.st1{fill:#566F7C;}
</style>
<g id="EthicsGlobal_Español_Color">
	<g>
		<g>
			<path class="st0" d="M61.8,111.7L21.3,51.1l40.5,35.2l49-50C99.7,20.9,81.6,10.8,61.2,10.8C27.4,10.8,0.1,38.2,0.1,72
				c0,33.8,27.4,61.1,61.1,61.1c33.8,0,61.1-27.4,61.1-61.1c0-10.9-2.8-21.1-7.8-29.9L61.8,111.7z M61.8,36
				c7.8,0,14.1,6.4,14.1,14.3c0,7.9-6.3,14.2-14.1,14.2c-7.8,0-14-6.4-14-14.2C47.7,42.4,54,36,61.8,36z"/>
			<path class="st0" d="M146.4,0l-35.6,36.3c1.3,1.9,2.6,3.8,3.7,5.8L146.4,0z"/>
		</g>
		<g>
			<g>
				<path class="st1" d="M1000.1,36.1c0,5.4-4.2,9.5-9.7,9.5c-5.4,0-9.7-4.2-9.7-9.5c0-5.3,4.3-9.4,9.7-9.4
					C995.9,26.6,1000.1,30.8,1000.1,36.1z M983.1,36.1c0,4.2,3.1,7.5,7.4,7.5c4.1,0,7.2-3.3,7.2-7.5c0-4.2-3.1-7.6-7.3-7.6
					C986.2,28.5,983.1,31.9,983.1,36.1z M988.9,41h-2.2v-9.4c0.9-0.2,2.1-0.3,3.6-0.3c1.8,0,2.6,0.3,3.3,0.7
					c0.5,0.4,0.9,1.1,0.9,2.1c0,1-0.8,1.9-2,2.2v0.1c0.9,0.3,1.4,1,1.7,2.3c0.3,1.4,0.5,2,0.7,2.4h-2.4c-0.3-0.3-0.5-1.2-0.7-2.3
					c-0.2-1-0.8-1.5-2-1.5h-1V41z M989,35.7h1c1.2,0,2.2-0.4,2.2-1.4c0-0.9-0.6-1.4-2-1.4c-0.6,0-1,0.1-1.2,0.1V35.7z"/>
			</g>
		</g>
		<g>
			<g>
				<polygon class="st0" points="169,121.3 239,121.3 239,105 185.4,105 185.4,80.6 227.3,80.6 227.3,64.1 185.4,64.1 185.4,39.9 
					239,39.9 239,23.4 169,23.4 				"/>
				<polygon class="st0" points="277.7,23.3 261.2,23.3 261.2,49.3 247.2,49.3 247.2,65.8 261.2,65.8 261.2,121.5 277.7,121.5 
					277.7,65.8 291.7,65.8 291.7,49.3 277.7,49.3 				"/>
				<path class="st0" d="M335,44.4c-7.2,0-13.5,2.2-18.6,6.7V23.4H300v97.9h16.4V77c0-4.5,1.6-8.3,4.8-11.5
					c3.2-3.2,6.9-4.7,11.5-4.7c4.5,0,8.3,1.6,11.5,4.8c3.2,3.2,4.8,7,4.8,11.5v44.3h16.5V77c0-8.5-2.8-16.1-8.4-22.5
					C351.1,47.8,343.7,44.4,335,44.4z"/>
				<path class="st0" d="M384.8,21.2c-3,0-5.5,1-7.5,3c-2,2-3,4.5-3,7.5c0,3,1,5.5,3,7.5c2,2,4.5,3,7.5,3c2.9,0,5.5-1,7.5-3
					c2.1-2,3.1-4.5,3.1-7.5c0-3-1.1-5.5-3.1-7.5C390.2,22.2,387.7,21.2,384.8,21.2z"/>
				<rect x="376.7" y="46.7" class="st0" width="16.4" height="74.6"/>
				<path class="st0" d="M425.7,67.7c4.6-4.6,10-6.9,16.5-6.9c7.1,0,13,2.8,18,8.5l1.4,1.6l13.6-8.8l-1.5-2.1
					c-3.7-4.9-8.3-8.8-13.9-11.5c-5.5-2.7-11.4-4.1-17.6-4.1c-10.9,0-20.3,3.9-28,11.6c-7.7,7.7-11.6,17.1-11.6,28
					c0,10.8,3.9,20.2,11.6,27.9c7.8,7.8,17.2,11.7,28,11.7c6.1,0,12-1.4,17.6-4.2c5.5-2.8,10.2-6.6,13.9-11.5l1.5-2.1l-13.6-8.8
					l-1.4,1.6c-5,5.7-10.9,8.5-18,8.5c-6.6,0-12-2.2-16.5-6.7c-4.6-4.7-6.8-10.1-6.8-16.4c0-3.3,0.6-6.3,1.7-8.9
					C421.8,72.5,423.5,70,425.7,67.7z"/>
				<path class="st0" d="M534,80c-0.3-0.1-0.9-0.4-6.4-1.5c-3.6-0.8-8.9-1.8-15.8-3.3c-9.9-1.9-9.9-5.7-9.9-7c0-1.6,0.5-3.9,4.4-5.7
					c2.6-1.2,5.8-1.8,9.5-1.8c3.7,0,6.8,0.6,9.4,1.8c4,1.8,4.4,4.1,4.4,5.7v2.4h16.5v-2.4c0-7.5-3.5-13.6-10.4-18.1
					c-5.8-3.8-12.5-5.7-19.9-5.7c-7.6,0-14.4,1.9-19.9,5.7c-6.9,4.4-10.4,10.5-10.4,18.1c0,9.8,4.5,16.5,13.3,20
					c0.3,0.1,1,0.3,6.5,1.5c3.6,0.8,8.9,1.8,15.8,3.3c9.8,1.9,9.8,5.6,9.8,6.8c0,1.8,0,7.5-15,7.5c-4.4,0-7.8-0.5-10.2-1.6
					c-4.5-1.7-5-4.2-5-5.9v-2.4h-16.4v2.4c0,7.7,3.6,13.9,10.9,18.4c3,1.8,6.2,3.2,9.6,4.1c3.4,0.9,7.1,1.4,11,1.4
					c3.9,0,7.6-0.5,11-1.4c3.3-0.9,6.5-2.3,9.6-4.1c7.2-4.5,10.8-10.7,10.8-18.4C547.2,90,542.8,83.4,534,80z"/>
			</g>
			<g>
				<path class="st1" d="M604.4,80.6h29.3v14c-7,8.4-15.8,12.6-26.9,12.6c-9.6,0-17.6-3.3-24.5-10.2c-7-6.9-10.3-14.9-10.3-24.6
					c0-9.7,3.4-17.8,10.3-24.6c6.9-6.9,14.9-10.2,24.5-10.2c5.4,0,10.7,1.2,15.6,3.7c4.9,2.4,9,5.9,12.2,10.3l1.4,1.9l13.5-9.4
					l-1.5-2c-4.8-6.6-10.9-11.7-18.2-15.4c-7.2-3.6-15-5.4-23.2-5.4c-14.1,0-26.3,5.1-36.3,15.1c-9.9,10.1-14.9,22.2-14.9,36.1
					c0,13.9,5,26.1,14.9,36.3c10.1,10,22.3,15.1,36.3,15.1c8.7,0,16.9-2.1,24.4-6.1c7.5-4.1,13.7-9.8,18.4-17l0.4-0.6V64.1h-45.6
					V80.6z"/>
				<rect x="661.3" y="23.4" class="st1" width="16.4" height="97.9"/>
				<path class="st1" d="M726.9,44.4c-10.9,0-20.3,3.9-28,11.6c-7.7,7.7-11.6,17.1-11.6,28c0,10.8,3.9,20.2,11.6,27.9
					c7.8,7.8,17.2,11.7,28,11.7c10.6,0,20.1-3.9,28-11.7c7.7-7.7,11.6-17.1,11.6-27.9c0-10.9-3.9-20.3-11.6-28
					C747.2,48.3,737.7,44.4,726.9,44.4z M726.9,107.2c-6.6,0-12-2.2-16.5-6.7c-4.6-4.7-6.8-10.1-6.8-16.4c0-3.3,0.6-6.3,1.7-8.9
					c1.1-2.6,2.8-5.2,5.1-7.5c4.6-4.6,10-6.9,16.5-6.9c6.4,0,11.7,2.2,16.3,6.9c4.6,4.6,6.9,10,6.9,16.4c0,6.4-2.2,11.8-6.9,16.4
					C738.7,105,733.4,107.2,726.9,107.2z"/>
				<path class="st1" d="M818.1,44.4c-10.1,0-18.7,3.6-25.5,10.6V23.4h-16.4v97.9h16.4v-8.3c6.9,7.1,15.5,10.7,25.5,10.7
					c10.7,0,19.7-4.1,26.8-12.1c7-7.7,10.6-17,10.6-27.6c0-10.5-3.6-19.8-10.7-27.7C837.7,48.5,828.7,44.4,818.1,44.4z M838.9,84.1
					c0,6.4-2.3,11.8-6.9,16.4c-4.5,4.5-9.8,6.7-16.3,6.7c-6.6,0-12-2.2-16.5-6.7c-4.6-4.7-6.8-10.1-6.8-16.4c0-3.3,0.6-6.3,1.7-8.9
					c1.1-2.6,2.8-5.2,5.1-7.5c4.6-4.6,10-6.9,16.5-6.9c6.4,0,11.7,2.2,16.3,6.9C836.7,72.3,838.9,77.7,838.9,84.1z"/>
				<path class="st1" d="M924.9,55c-6.8-7-15.4-10.6-25.5-10.6c-10.6,0-19.6,4-26.7,12c-7,7.8-10.6,17.1-10.6,27.7
					c0,10.7,3.5,20,10.5,27.5c7.2,8,16.2,12.1,26.8,12.1c10.1,0,18.7-3.6,25.5-10.6v8.2h16.5V46.7h-16.5V55z M918,67.7
					c4.6,4.6,6.9,10,6.9,16.4c0,6.4-2.3,11.8-6.9,16.4c-4.4,4.5-9.8,6.7-16.2,6.7c-6.6,0-12-2.2-16.5-6.7
					c-4.6-4.7-6.8-10.1-6.8-16.4c0-3.3,0.6-6.3,1.7-8.9c1.1-2.6,2.8-5.2,5.1-7.5c4.6-4.6,10-6.9,16.5-6.9
					C908.1,60.8,913.4,63,918,67.7z"/>
				<rect x="953.9" y="23.4" class="st1" width="16.4" height="97.9"/>
			</g>
		</g>
	</g>
	<g>
		<g>
			<path class="st1" d="M690.5,158.8v5.7h8.2v2.3h-8.2v8h-2.3v-18.3h12.8v2.3H690.5z"/>
			<path class="st1" d="M719.4,172.4c-1.9,1.9-4.1,2.8-6.8,2.8c-2.6,0-4.9-0.9-6.8-2.8c-1.9-1.9-2.8-4.2-2.8-6.8
				c0-2.6,0.9-4.9,2.8-6.8c1.9-1.9,4.1-2.8,6.8-2.8c2.7,0,4.9,0.9,6.8,2.8c1.9,1.9,2.8,4.1,2.8,6.8
				C722.3,168.3,721.3,170.5,719.4,172.4z M717.8,160.5c-1.4-1.4-3.2-2.1-5.2-2.1c-2,0-3.7,0.7-5.1,2.1c-1.4,1.4-2.2,3.2-2.2,5.2
				c0,2,0.7,3.7,2.2,5.2c1.4,1.4,3.1,2.1,5.1,2.1c2,0,3.7-0.7,5.2-2.1c1.4-1.4,2.1-3.2,2.1-5.2C720,163.6,719.2,161.9,717.8,160.5z"
				/>
			<path class="st1" d="M741,174.8v-15.3l-5.6,15.3H733l-5.6-15.4v15.4h-2.3v-18.3h3.7l5.4,14.9l5.4-14.9h3.7v18.3H741z"/>
			<path class="st1" d="M746.6,174.8v-18.3h12.8v2.3h-10.5v5.7h8.2v2.3h-8.2v5.7h10.5v2.3H746.6z"/>
			<path class="st1" d="M775.1,174.8l-10.1-14.2v14.2h-2.3v-18.3h2.3l10.1,14.2v-14.2h2.3v18.3H775.1z"/>
			<path class="st1" d="M788.1,158.8v16h-2.3v-16h-5.9v-2.3H794v2.3H788.1z"/>
			<path class="st1" d="M806.3,174.8l-1.5-4.1H797l-1.5,4.1H793l6.7-18.3h2.4l6.7,18.3H806.3z M800.9,159.8l-3.1,8.5h6.2
				L800.9,159.8z"/>
			<path class="st1" d="M823.4,174.8l-10.1-14.2v14.2H811v-18.3h2.3l10.1,14.2v-14.2h2.3v18.3H823.4z"/>
			<path class="st1" d="M842.3,172.1c-1.8,1.8-3.9,2.7-6.4,2.7H829v-18.3h6.8c2.5,0,4.7,0.9,6.4,2.7c1.8,1.8,2.7,3.9,2.7,6.4
				C845,168.2,844.1,170.3,842.3,172.1z M840.7,160.8c-1.3-1.3-3-2-4.9-2h-4.6v13.7h4.6c1.9,0,3.5-0.7,4.9-2c1.3-1.4,2-3,2-4.9
				C842.7,163.7,842.1,162.1,840.7,160.8z"/>
			<path class="st1" d="M864,172.4c-1.9,1.9-4.1,2.8-6.8,2.8c-2.6,0-4.9-0.9-6.8-2.8c-1.9-1.9-2.8-4.2-2.8-6.8
				c0-2.6,0.9-4.9,2.8-6.8c1.9-1.9,4.1-2.8,6.8-2.8c2.7,0,4.9,0.9,6.8,2.8c1.9,1.9,2.8,4.1,2.8,6.8
				C866.8,168.3,865.8,170.5,864,172.4z M862.3,160.5c-1.4-1.4-3.2-2.1-5.2-2.1c-2,0-3.7,0.7-5.1,2.1c-1.4,1.4-2.2,3.2-2.2,5.2
				c0,2,0.7,3.7,2.2,5.2c1.4,1.4,3.1,2.1,5.1,2.1c2,0,3.7-0.7,5.2-2.1c1.4-1.4,2.1-3.2,2.1-5.2C864.5,163.6,863.8,161.9,862.3,160.5
				z"/>
			<path class="st1" d="M888.9,174.8h-2.4l-6.7-18.3h2.4l5.4,14.9l5.4-14.9h2.5L888.9,174.8z"/>
			<path class="st1" d="M907.3,174.8l-1.5-4.1h-7.9l-1.5,4.1H894l6.7-18.3h2.4l6.7,18.3H907.3z M901.9,159.8l-3.1,8.5h6.2
				L901.9,159.8z"/>
			<path class="st1" d="M912,174.8v-18.3h2.3v16h8.2v2.3H912z"/>
			<path class="st1" d="M940.9,172.4c-1.9,1.9-4.1,2.8-6.8,2.8s-4.9-0.9-6.8-2.8c-1.9-1.9-2.8-4.2-2.8-6.8c0-2.6,0.9-4.9,2.8-6.8
				c1.9-1.9,4.1-2.8,6.8-2.8s4.9,0.9,6.8,2.8c1.9,1.9,2.8,4.1,2.8,6.8C943.7,168.3,942.8,170.5,940.9,172.4z M939.3,160.5
				c-1.4-1.4-3.2-2.1-5.2-2.1c-2,0-3.7,0.7-5.1,2.1c-1.4,1.4-2.2,3.2-2.2,5.2c0,2,0.7,3.7,2.2,5.2c1.4,1.4,3.1,2.1,5.1,2.1
				c2,0,3.7-0.7,5.2-2.1c1.4-1.4,2.1-3.2,2.1-5.2C941.4,163.6,940.7,161.9,939.3,160.5z"/>
			<path class="st1" d="M959.1,174.8l-4.2-6.4c-0.7-1.1-1.8-1.6-3.4-1.6h-2.7v8h-2.3v-18.3h7.8c1.5,0,2.8,0.5,4,1.4
				c1.2,1,1.7,2.3,1.7,3.7c0,1.2-0.4,2.2-1.2,3.1c-0.7,0.9-1.7,1.5-3,1.8c0.4,0,1,0.6,1.8,1.8l4.2,6.4H959.1z M956.6,159.5
				c-0.6-0.5-1.4-0.7-2.3-0.7h-5.5v5.7h5.5c0.9,0,1.7-0.3,2.3-0.8c0.7-0.5,1.1-1.2,1.1-2.1C957.7,160.8,957.3,160.1,956.6,159.5z"/>
			<path class="st1" d="M963.5,174.8v-18.3h12.8v2.3h-10.5v5.7h8.2v2.3h-8.2v5.7h10.5v2.3H963.5z"/>
			<path class="st1" d="M991.6,174c-1.4,0.9-3,1.3-4.8,1.3c-1.8,0-3.4-0.4-4.9-1.3c-1.6-1-2.5-2.4-2.5-4.1h2.3
				c0,1.1,0.6,1.9,1.8,2.5c0.9,0.4,2,0.6,3.2,0.6c1.3,0,2.3-0.2,3.2-0.6c1.2-0.5,1.8-1.4,1.8-2.5c0-1.4-1-2.3-3.1-2.8
				c-0.9-0.2-1.9-0.4-2.8-0.6c-1-0.2-1.9-0.4-2.8-0.6c-2.1-0.8-3.1-2.3-3.1-4.5c0-1.6,0.8-3,2.3-4c1.3-0.9,2.9-1.3,4.6-1.3
				c1.7,0,3.3,0.4,4.6,1.3c1.5,1,2.2,2.3,2.2,4h-2.3c0-1-0.5-1.8-1.6-2.4c-0.9-0.5-1.9-0.7-3-0.7c-0.6,0-1.1,0.1-1.6,0.2
				c-0.5,0.1-0.9,0.3-1.4,0.5c-1.1,0.6-1.6,1.4-1.6,2.4c0,1.4,1,2.4,3.1,2.9l5.7,1.2c2.1,0.8,3.1,2.3,3.1,4.4
				C994,171.5,993.2,172.9,991.6,174z"/>
		</g>
	</g>
</g>
</svg>
